<?xml version="1.0" encoding="UTF-8" standalone="no"?>
<!-- Generator: Adobe Illustrator 19.0.0, SVG Export Plug-In . SVG Version: 6.00 Build 0)  -->

<svg
   xmlns:dc="http://purl.org/dc/elements/1.1/"
   xmlns:cc="http://creativecommons.org/ns#"
   xmlns:rdf="http://www.w3.org/1999/02/22-rdf-syntax-ns#"
   xmlns:svg="http://www.w3.org/2000/svg"
   xmlns="http://www.w3.org/2000/svg"
   xmlns:sodipodi="http://sodipodi.sourceforge.net/DTD/sodipodi-0.dtd"
   xmlns:inkscape="http://www.inkscape.org/namespaces/inkscape"
   version="1.1"
   id="Layer_1"
   x="0px"
   y="0px"
   viewBox="0 0 256 256"
   style="enable-background:new 0 0 256 256;"
   xml:space="preserve"
   inkscape:version="0.91 r13725"
   sodipodi:docname="WIKI.svg"><metadata
     id="metadata17"><rdf:RDF><cc:Work
         rdf:about=""><dc:format>image/svg+xml</dc:format><dc:type
           rdf:resource="http://purl.org/dc/dcmitype/StillImage" /><dc:title></dc:title></cc:Work></rdf:RDF></metadata><defs
     id="defs15" /><sodipodi:namedview
     pagecolor="#ffffff"
     bordercolor="#666666"
     borderopacity="1"
     objecttolerance="10"
     gridtolerance="10"
     guidetolerance="10"
     inkscape:pageopacity="0"
     inkscape:pageshadow="2"
     inkscape:window-width="1920"
     inkscape:window-height="1017"
     id="namedview13"
     showgrid="false"
     inkscape:zoom="0.921875"
     inkscape:cx="-0.58252271"
     inkscape:cy="235.02989"
     inkscape:window-x="-8"
     inkscape:window-y="-8"
     inkscape:window-maximized="1"
     inkscape:current-layer="Layer_1" /><style
     type="text/css"
     id="style3">
	.st0{fill:#FFFFFF;}
	.st1{fill:#EC2652;}
</style><rect
     style="fill:#ec2652;fill-opacity:1;fill-rule:evenodd;stroke:#ffffff;stroke-width:1px;stroke-linecap:butt;stroke-linejoin:miter;stroke-opacity:0"
     id="rect4145-9"
     width="249"
     height="249"
     x="3"
     y="4"
     ry="0.79400003"
     rx="0.79400015" /><rect
     style="fill:#ec2652;fill-rule:evenodd;stroke:#ffffff;stroke-width:2;stroke-linecap:butt;stroke-linejoin:miter;stroke-opacity:1;fill-opacity:1;stroke-miterlimit:4;stroke-dasharray:none"
     id="rect4145"
     width="239"
     height="239"
     x="8"
     y="9"
     ry="0.79400003"
     rx="0.79400015" /><g
     id="XMLID_90_"
     transform="matrix(0.80737764,0,0,0.80737764,24.519233,1.9871531)"><g
       id="XMLID_98_"><path
         id="XMLID_102_"
         class="st0"
         d="m 144,198.7 c 5.9,5 14.6,12.1 15.5,14.3 5.7,13.7 19.2,23.3 34.9,23.3 l 9.7,0 0,-14 -9.7,0 0,-23.7 -18.9,-12 -31.5,12.1 z"
         inkscape:connector-curvature="0"
         style="fill:#ffffff" /><path
         id="XMLID_99_"
         class="st0"
         d="m 208.1,240.3 -13.7,0 c -16.8,0 -31.9,-10 -38.4,-25.6 -1.2,-1.8 -8.4,-7.9 -12.3,-11.1 l -7.2,-6.1 39.6,-15.3 22.4,14.2 0,22 9.7,0 0,21.9 z M 151.7,200 c 7.6,6.4 10.6,9.3 11.5,11.5 5.3,12.7 17.5,20.8 31.2,20.8 l 5.8,0 0,-6.1 -9.7,0 0,-25.5 -15.4,-9.7 -23.4,9 z"
         inkscape:connector-curvature="0"
         style="fill:#ffffff" /></g><path
       id="XMLID_97_"
       class="st0"
       d="m 191.2,65.9 c 3.3,-0.2 11.7,-0.1 14.6,0 l 0.4,-14 c -1.2,0 -11.4,-0.3 -16.1,0 0,0 -0.1,0 -0.1,0 -6.6,-17.5 -23.5,-30 -43.3,-30 -11.5,0 -22.4,2.1 -32.6,5.9 -65.1,33.5 -59.8,170.7 42.6,170.7 0,-5.2 1.1,-10.2 3,-14.7 -13.9,-9.4 -23.7,-24 -27.1,-40.7 8.5,-0.2 16.6,-3.4 23,-8.9 l -11.8,-11.8 -9.9,-9.9 c 1.3,-4.6 3.2,-9.1 5.5,-13.2 10.2,-18.6 29.2,-31.7 51.8,-33.4 z"
       inkscape:connector-curvature="0"
       style="fill:#ffffff" /><g
       id="XMLID_91_"><path
         id="XMLID_96_"
         class="st1"
         d="m 156.7,198.5 c -22.2,-12.8 -37.3,-36.1 -39.2,-62.4 -0.7,-9.9 0.4,-19.5 3.2,-28.5 -2.3,-1.6 -4.4,-3.5 -6.5,-5.5 C 93.7,81.6 93.7,48.4 114.2,27.9 104,20.8 90.5,19 78.3,24.2 70.8,27.4 64.8,32.9 60.9,39.4 l 15.3,15.3 c -14.2,16.8 -23.3,38.4 -23.3,62 0,53.1 43.2,96.3 96.3,96.3 l 10.4,0 c -1.9,-4.4 -2.9,-9.3 -2.9,-14.5 l 37.8,0.1 0,-23.7 9.7,0 0,-14 -9.7,0 c -15.6,0 -29,9.5 -34.8,23 -1.9,4.4 -3,9.4 -3,14.6 z"
         inkscape:connector-curvature="0"
         style="fill:#ec2652" /><path
         id="XMLID_92_"
         class="st0"
         d="m 165.5,217 -16.4,0 C 93.8,217 48.9,172 48.9,116.8 48.9,94.8 56.7,73 70.8,55 L 55.9,40.1 57.5,37.5 C 62,30 68.6,24.1 76.7,20.7 c 13.1,-5.6 28,-4.1 39.7,4 l 3.9,2.7 -3.3,3.3 c -9.2,9.2 -14.2,21.3 -14.2,34.3 0,13 5,25.1 14.2,34.3 1.8,1.8 3.9,3.6 6,5.1 l 2.3,1.7 -0.8,2.7 c -2.7,8.8 -3.7,17.9 -3,27.1 1.6,22.6 13.4,43 31.9,55.9 0.5,-3.2 1.5,-6.4 2.7,-9.4 6.6,-15.4 21.6,-25.4 38.4,-25.4 l 13.7,0 0,21.9 -9.7,0 0,23.7 -37.5,0 c 0.4,3.1 1.2,6.1 2.4,9 l 2.1,5.4 z M 66,38.9 81.6,54.5 79.3,57.3 c -14.4,17 -22.4,38.1 -22.4,59.5 0,50.9 41.4,92.3 92.3,92.3 l 4.9,0 c -0.7,-2.7 -1.1,-5.5 -1.3,-8.3 -22.7,-13.9 -37.3,-37.9 -39.2,-64.4 -0.7,-9.3 0.2,-18.4 2.6,-27.3 -1.6,-1.3 -3.2,-2.7 -4.7,-4.2 C 100.8,94.2 94.9,80 94.9,65 94.9,51.6 99.5,38.9 108,28.8 99.2,24.3 89,24 79.8,27.9 74.2,30.3 69.5,34.1 66,38.9 Z m 94.9,155.7 29.6,0 0,-23.7 9.7,0 0,-6.1 -5.8,0 c -13.6,0 -25.8,8.1 -31.1,20.6 -1.2,2.9 -2.1,6 -2.4,9.2 z"
         inkscape:connector-curvature="0"
         style="fill:#ffffff" /></g></g><text
     xml:space="preserve"
     style="font-style:normal;font-weight:normal;font-size:40px;line-height:125%;font-family:sans-serif;letter-spacing:0px;word-spacing:0px;fill:#000000;fill-opacity:1;stroke:#ec2652;stroke-width:0.5;stroke-linecap:butt;stroke-linejoin:miter;stroke-miterlimit:4;stroke-dasharray:none;stroke-opacity:1"
     x="8.7177429"
     y="243.72749"
     id="text4162"
     sodipodi:linespacing="125%"><tspan
       sodipodi:role="line"
       id="tspan4164"
       x="8.7177429"
       y="243.72749"
       style="font-style:normal;font-variant:normal;font-weight:normal;font-stretch:normal;font-size:62.5px;line-height:125%;font-family:sans-serif;-inkscape-font-specification:'sans-serif, Normal';text-align:start;writing-mode:lr-tb;text-anchor:start;fill:#ffffff;stroke:#ec2652;stroke-width:0.5;stroke-miterlimit:4;stroke-dasharray:none;stroke-opacity:1">Chatter</tspan></text>
</svg>